<?xml version="1.0" encoding="UTF-8" standalone="no"?>
<!-- Created with Inkscape (http://www.inkscape.org/) -->

<svg
   xmlns:dc="http://purl.org/dc/elements/1.1/"
   xmlns:cc="http://creativecommons.org/ns#"
   xmlns:rdf="http://www.w3.org/1999/02/22-rdf-syntax-ns#"
   xmlns:svg="http://www.w3.org/2000/svg"
   xmlns="http://www.w3.org/2000/svg"
   xmlns:sodipodi="http://sodipodi.sourceforge.net/DTD/sodipodi-0.dtd"
   xmlns:inkscape="http://www.inkscape.org/namespaces/inkscape"
   version="1.0"
   width="50"
   height="50"
   viewBox="-0.335 -0.915 50 50"
   id="svg2"
   xml:space="preserve"
   sodipodi:docname="alko.svg"
   inkscape:version="0.92.4 5da689c313, 2019-01-14"><metadata
   id="metadata3775"><rdf:RDF><cc:Work
       rdf:about=""><dc:format>image/svg+xml</dc:format><dc:type
         rdf:resource="http://purl.org/dc/dcmitype/StillImage" /><dc:title></dc:title></cc:Work></rdf:RDF></metadata><sodipodi:namedview
   pagecolor="#ffffff"
   bordercolor="#666666"
   borderopacity="1"
   objecttolerance="10"
   gridtolerance="10"
   guidetolerance="10"
   inkscape:pageopacity="0"
   inkscape:pageshadow="2"
   inkscape:window-width="1362"
   inkscape:window-height="729"
   id="namedview3773"
   showgrid="false"
   inkscape:zoom="7.6862745"
   inkscape:cx="-20.035181"
   inkscape:cy="23.377551"
   inkscape:window-x="0"
   inkscape:window-y="18"
   inkscape:window-maximized="0"
   inkscape:current-layer="svg2" />
	<defs
   id="defs4">
	</defs>
	<g
   transform="matrix(0.08928571,0,0,0.08928603,-0.24489796,-0.96883303)"
   id="g6">
		<g
   id="g8">
			<g
   id="g10">
				<path
   d="m 499.538,224.867 c -8.214,-6.725 -19.168,-8.806 -31.685,-6.018 l -0.22,0.049 c -26.069,5.807 -57.511,35.569 -64.433,79.278 -0.875,5.518 -1.151,10.834 -0.857,15.828 0.075,1.27 0.196,2.515 0.344,3.743 -8.301,10.695 -17.415,18.413 -19.505,19.8 -10.317,6.854 -14.938,-7.193 -19.918,-18.628 L 353.14,294.588 c 32.349,-27.518 59.313,-50.496 59.313,-50.496 3.423,-2.922 3.821,-8.064 0.9,-11.487 -2.924,-3.434 -8.064,-3.833 -11.487,-0.911 l -55.324,46.915 50.515,-119.747 c 3.414,-8.096 -0.382,-17.427 -8.478,-20.842 -8.095,-3.414 -17.425,0.38 -20.84,8.475 L 292.78,324.2 270.861,342.785 c -8.756,7.075 -17.141,12.89 -20.143,11.259 -4.704,-2.563 -2.092,-8.137 0.109,-13.33 l 70.567,-167.288 c 3.412,-8.095 -0.382,-17.432 -8.478,-20.844 -8.095,-3.413 -17.421,0.379 -20.832,8.475 L 209.28,357.335 c -1.422,3.362 -2.222,6.443 -2.222,10.025 0,8.096 3.992,15.241 9.656,19.494 3.471,2.62 7.563,4.143 11.768,4.143 3.632,0 10.065,-0.27 15.709,-4.232 1.331,-0.934 15.209,-12.616 34.476,-28.932 -2.492,7.76 1.309,16.273 8.955,19.503 8.095,3.414 17.425,-0.38 20.841,-8.475 l 19.311,-45.771 9.935,24.328 c 4.711,11.017 12.205,20.242 29.144,16.918 14.161,-2.78 29.661,-18.258 40.198,-31.107 2.204,4.535 5.134,8.389 8.747,11.35 5.819,4.763 16.325,9.646 33.354,5.852 25.361,-5.653 55.971,-32.626 63.239,-78.49 3.26,-20.562 -1.427,-37.72 -12.853,-47.074 z m -26.376,60.184 c -11.841,32.167 -22.635,48.792 -33.004,50.826 -2.652,0.518 -3.705,-0.607 -4.267,-1.499 -1.344,-2.137 -1.895,-6.439 -1.344,-12.758 0.787,-8.995 3.803,-22.065 9.939,-38.749 11.141,-30.264 24.912,-47.659 32.76,-49.198 0.008,-0.001 0.182,-0.036 0.182,-0.036 3.118,-0.612 4.262,0.563 4.852,1.498 1.368,2.176 4.76,12.213 -9.118,49.916 z"
   style="fill:#e31c18"
   id="path12"
   inkscape:connector-curvature="0" />
			</g>
		</g>
		<g
   id="g14">
			<g
   id="g16">
				<path
   d="M 280.002,0 C 125.608,0 0,125.608 0,280.002 0,434.393 125.608,559.998 280.002,559.998 434.393,559.999 560,434.393 560,280.002 560,125.608 434.393,0 280.002,0 Z m 0,528.891 c -94.457,0 -176.788,-52.892 -218.943,-130.609 l 56.753,-64.529 45.14,-8.86 -25.193,59.718 c -3.415,8.094 0.379,17.426 8.476,20.84 8.095,3.415 17.426,-0.378 20.841,-8.473 L 255.668,186.98 c 3.414,-8.096 -0.383,-17.427 -8.477,-20.841 -5.068,-2.138 -10.621,-1.449 -14.902,1.351 -1.081,0.649 -2.083,1.47 -2.954,2.475 L 96.156,321.387 60.439,328.399 c -4.415,0.889 -7.273,5.188 -6.387,9.599 0.887,4.416 5.185,7.275 9.6,6.387 l 14.84,-2.913 -28.83,32.78 C 37.716,345.165 31.111,313.345 31.111,280.003 c 0,-137.239 111.651,-248.892 248.891,-248.892 137.238,0 248.892,111.653 248.892,248.892 -10e-4,137.235 -111.654,248.888 -248.892,248.888 z m -144.526,-215.224 61.906,-70.388 -26.786,63.494 z"
   style="fill:#e31c18"
   id="path18"
   inkscape:connector-curvature="0" />
			</g>
		</g>
	</g>
</svg>